<svg width="70" height="21" viewBox="0 0 70 21" fill="none" xmlns="http://www.w3.org/2000/svg"
 width="400.000000pt" height="400.000000pt" viewBox="0 0 400.000000 400.000000"
 preserveAspectRatio="xMidYMid meet">

<g transform="translate(0.000000,400.000000) scale(0.100000,-0.100000)"
fill="#000000" stroke="none">
<path d="M1824 3506 c-44 -20 -64 -53 -64 -107 0 -58 26 -94 79 -110 50 -15
101 1 136 42 78 93 -37 227 -151 175z m124 -52 c12 -14 22 -38 22 -55 0 -42
-48 -89 -90 -89 -41 0 -90 47 -90 87 0 83 102 120 158 57z"/>
<path d="M2085 3428 c-12 -120 -11 -141 2 -145 7 -3 14 19 18 64 12 112 13
112 84 7 36 -52 70 -94 76 -94 7 0 17 33 23 83 16 113 15 147 -3 147 -11 0
-15 -12 -16 -42 0 -24 -4 -63 -7 -88 l-7 -45 -36 50 c-20 28 -50 71 -68 98
-46 68 -57 62 -66 -35z"/>
<path d="M1651 3444 l-21 -46 -31 24 c-58 43 -58 43 -69 32 -7 -7 6 -22 40
-48 45 -34 50 -43 61 -97 10 -52 24 -71 41 -54 3 3 -1 31 -8 63 -13 54 -12 59
11 111 29 63 29 61 10 61 -8 0 -23 -21 -34 -46z"/>
<path d="M2387 3352 c-21 -55 -37 -102 -37 -106 0 -13 92 -46 129 -46 95 0
146 124 78 188 -20 19 -108 62 -126 62 -4 0 -24 -44 -44 -98z m121 38 c36 -22
56 -62 46 -94 -11 -38 -45 -66 -80 -66 -35 0 -84 18 -84 31 0 4 12 40 26 78
29 78 38 83 92 51z"/>
<path d="M1380 3400 c-26 -11 -44 -24 -42 -32 4 -15 73 -192 76 -196 8 -8 116
43 116 54 0 17 -1 17 -50 -2 -45 -18 -55 -14 -65 27 -6 23 -2 27 34 39 23 7
41 19 41 27 0 17 -18 16 -50 -2 -36 -21 -44 -19 -57 15 -12 33 -7 41 41 57 34
11 47 33 19 32 -10 0 -38 -8 -63 -19z"/>
<path d="M1159 3288 l-37 -21 56 -96 c30 -53 56 -97 57 -99 2 -2 23 10 49 25
76 46 84 116 15 130 -23 4 -29 11 -29 32 0 54 -48 66 -111 29z m85 -23 c7 -20
-3 -44 -25 -55 -14 -8 -21 -5 -33 12 -9 12 -16 28 -16 34 0 25 65 33 74 9z
m64 -91 c2 -14 -7 -29 -25 -44 l-28 -21 -17 21 c-23 28 -23 46 0 59 28 18 67
9 70 -15z"/>
<path d="M2772 3253 c-11 -15 -38 -58 -61 -96 l-41 -67 48 -29 c53 -33 65 -37
70 -23 2 6 -15 21 -37 34 l-40 24 19 32 20 33 37 -25 c34 -24 53 -26 53 -6 0
4 -16 17 -35 29 -40 23 -41 27 -16 60 l18 24 39 -26 c28 -20 40 -23 46 -14 9
14 6 17 -54 51 l-46 27 -20 -28z"/>
<path d="M1800 3161 c-34 -10 -46 -57 -33 -130 11 -59 38 -118 131 -294 48
-90 52 -102 52 -166 l0 -69 44 -4 45 -3 6 58 c8 67 -1 194 -21 290 -28 136
-11 223 59 295 l31 32 -145 -1 c-79 -1 -155 -4 -169 -8z"/>
<path d="M2129 3119 c-31 -61 -30 -157 6 -344 27 -143 28 -151 13 -205 -8 -30
-18 -63 -23 -72 -5 -13 -1 -20 16 -27 69 -25 65 -27 93 51 35 99 53 176 66
280 6 47 17 102 25 122 21 51 68 100 115 121 29 13 37 21 28 27 -23 15 -222
76 -270 83 l-47 7 -22 -43z"/>
<path d="M2966 3137 c-3 -12 -6 -43 -6 -68 l0 -47 -75 -7 c-41 -4 -75 -11 -75
-15 0 -15 39 -22 94 -15 l54 7 -5 -59 c-4 -46 -2 -61 11 -72 14 -12 16 -7 16
57 0 39 4 73 9 76 5 4 37 9 70 13 83 8 76 29 -8 25 l-61 -3 0 60 c0 61 -13 88
-24 48z"/>
<path d="M1685 3143 c-50 -13 -204 -67 -237 -84 -42 -21 -47 -40 -26 -100 20
-59 69 -120 190 -239 118 -116 157 -174 158 -232 0 -16 1 -28 3 -28 1 0 22 6
47 14 35 10 44 18 42 32 -10 65 -52 177 -110 294 -62 125 -67 139 -67 200 1
47 7 77 23 108 23 43 21 46 -23 35z"/>
<path d="M907 3102 c-20 -21 -37 -42 -37 -48 0 -5 33 -43 74 -83 l75 -74 45
37 c25 21 46 44 46 52 0 22 -13 17 -45 -16 -35 -36 -45 -37 -69 -4 -18 26 -18
26 14 59 41 42 22 55 -23 15 l-34 -29 -23 24 -24 25 32 33 c18 18 32 36 32 40
0 18 -29 4 -63 -31z"/>
<path d="M2478 3013 c-14 -16 -33 -42 -41 -59 -20 -39 -57 -218 -57 -273 0
-93 -35 -193 -84 -242 l-26 -26 40 -32 40 -32 61 83 c34 46 86 132 116 193 30
60 65 124 79 142 31 41 95 75 154 82 l45 6 -60 48 c-71 57 -203 137 -225 137
-9 0 -28 -12 -42 -27z"/>
<path d="M1305 2978 c-62 -42 -192 -144 -201 -159 -10 -16 24 -75 67 -117 30
-29 90 -66 189 -114 171 -84 199 -104 240 -168 l32 -49 34 27 c19 15 34 31 34
35 0 24 -115 171 -200 257 -126 127 -135 142 -135 248 0 45 0 82 0 81 0 0 -27
-18 -60 -41z"/>
<path d="M761 2946 c-27 -28 -35 -45 -39 -85 -4 -47 -2 -53 31 -86 30 -30 42
-35 81 -35 39 0 51 5 81 35 38 38 54 80 37 97 -8 8 -16 -1 -27 -30 -29 -72
-98 -94 -149 -47 -41 38 -36 88 13 136 38 35 42 49 16 49 -6 0 -26 -15 -44
-34z"/>
<path d="M3087 2879 c-62 -49 -86 -74 -78 -82 9 -9 20 -4 77 38 9 6 20 1 38
-18 33 -36 66 -39 99 -10 27 25 21 65 -15 107 l-33 37 -88 -72z m121 -33 c-4
-31 -51 -34 -72 -4 -15 21 -14 23 12 45 l27 22 18 -21 c10 -12 17 -31 15 -42z"/>
<path d="M2774 2801 c-53 -32 -93 -91 -170 -248 -78 -160 -111 -207 -168 -238
l-34 -19 21 -38 c12 -21 26 -38 31 -38 26 0 162 107 255 200 131 132 152 144
253 144 52 0 75 3 71 10 -57 99 -184 246 -212 246 -9 0 -30 -9 -47 -19z"/>
<path d="M1010 2711 c-61 -78 -130 -188 -130 -207 0 -24 61 -73 118 -95 31
-12 129 -32 216 -45 170 -25 223 -44 271 -94 l28 -30 30 41 30 41 -29 24 c-75
62 -158 116 -252 163 -153 77 -187 113 -219 239 l-8 33 -55 -70z"/>
<path d="M3220 2718 c-47 -27 -89 -54 -94 -58 -5 -5 6 -34 24 -65 22 -38 36
-53 43 -46 6 6 3 21 -12 46 -27 46 -27 47 9 68 l29 18 21 -41 c11 -22 24 -40
29 -40 19 0 19 15 -2 52 l-22 39 25 19 c25 20 25 20 40 0 8 -12 22 -31 32 -43
27 -36 33 -10 8 36 -39 71 -36 71 -130 15z"/>
<path d="M614 2739 c-9 -15 0 -21 80 -62 37 -19 64 -37 60 -39 -5 -3 -57 -16
-116 -29 -59 -13 -110 -29 -112 -35 -4 -10 178 -114 198 -114 3 0 6 6 6 13 0
7 -31 30 -70 51 -38 20 -70 39 -70 41 0 2 45 14 101 26 91 21 142 41 129 52
-3 2 -49 27 -102 55 -63 34 -99 48 -104 41z"/>
<path d="M3264 2516 c-43 -43 -45 -90 -9 -153 27 -45 32 -48 53 -35 9 6 6 14
-13 32 -79 74 1 200 96 150 25 -14 49 -62 49 -99 0 -23 4 -29 15 -25 33 13 7
105 -40 142 -19 15 -42 22 -72 22 -38 0 -50 -5 -79 -34z"/>
<path d="M2985 2513 c-48 -13 -128 -78 -233 -190 -111 -118 -161 -155 -230
-169 -35 -7 -38 -15 -21 -63 7 -19 18 -31 29 -31 38 0 199 64 310 123 110 59
118 62 185 62 53 -1 80 -6 113 -23 l43 -23 -7 28 c-13 57 -57 180 -82 233 -23
48 -31 55 -57 57 -16 0 -39 -1 -50 -4z"/>
<path d="M466 2404 c-10 -31 -16 -58 -13 -60 2 -2 50 -18 107 -35 82 -25 104
-28 111 -17 12 19 32 108 26 115 -11 11 -26 -9 -33 -43 -8 -41 -20 -49 -57
-35 -24 9 -25 13 -16 43 12 44 11 60 -3 56 -7 -3 -18 -21 -23 -42 -12 -40 -12
-40 -54 -31 l-30 6 15 41 c17 50 18 58 1 58 -7 0 -21 -25 -31 -56z"/>
<path d="M820 2378 c-18 -45 -39 -115 -48 -156 l-16 -73 27 -27 c26 -25 34
-27 135 -30 76 -3 128 1 182 14 41 9 114 19 161 21 73 4 94 2 134 -16 27 -12
49 -20 50 -19 3 4 35 79 35 83 0 5 -125 53 -180 68 -30 8 -102 23 -160 32
-131 20 -195 49 -238 109 -18 24 -32 49 -32 55 0 5 -4 12 -9 16 -5 3 -24 -32
-41 -77z"/>
<path d="M3485 2272 l6 -38 -95 -19 c-63 -12 -96 -23 -96 -32 0 -17 16 -16
113 3 86 18 97 14 97 -33 0 -14 6 -23 15 -23 18 0 17 -3 6 57 -5 26 -12 65
-16 86 -4 24 -11 37 -21 37 -13 0 -14 -8 -9 -38z"/>
<path d="M624 2190 c-4 -22 -10 -43 -15 -45 -4 -3 -47 1 -95 10 -106 18 -104
18 -104 0 0 -9 14 -17 38 -21 20 -3 68 -12 106 -20 38 -7 72 -11 76 -9 4 3 10
22 14 42 3 21 9 48 12 61 5 16 2 22 -10 22 -11 0 -18 -13 -22 -40z"/>
<path d="M2993 2146 c-33 -12 -105 -48 -160 -79 -141 -80 -168 -90 -246 -90
l-68 0 3 -46 3 -46 103 -3 c67 -2 136 3 195 14 193 36 260 28 338 -43 l37 -34
8 58 c10 82 -11 264 -33 281 -26 19 -111 13 -180 -12z"/>
<path d="M1560 2040 l0 -110 50 0 c48 0 50 1 50 28 0 20 8 32 29 45 l29 17 37
-45 c36 -44 37 -45 97 -45 l60 0 -61 69 -62 69 41 29 c22 15 48 33 58 40 14
10 5 12 -51 13 -64 0 -71 -2 -120 -40 l-52 -39 -3 39 -3 40 -50 0 -49 0 0
-110z"/>
<path d="M1950 2040 l0 -110 55 0 55 0 0 110 0 110 -55 0 -55 0 0 -110z"/>
<path d="M2110 2125 c0 -24 3 -25 55 -25 l55 0 0 -85 0 -85 50 0 50 0 0 85 0
85 55 0 c52 0 55 1 55 25 l0 25 -160 0 -160 0 0 -25z"/>
<path d="M744 2066 c-3 -19 -4 -94 -3 -165 5 -152 10 -160 95 -161 68 0 110
15 292 107 151 77 153 78 227 77 l75 -1 0 43 c0 29 -5 44 -16 48 -29 11 -239
5 -319 -9 -163 -30 -255 -11 -318 65 l-26 30 -7 -34z"/>
<path d="M3310 2076 c0 -7 15 -17 33 -22 29 -9 32 -14 38 -58 6 -51 -3 -69
-41 -81 -20 -6 -28 -35 -10 -35 21 0 220 105 220 117 0 6 -10 15 -22 18 -13 4
-62 22 -110 41 -98 38 -108 40 -108 20z m155 -70 l30 -13 -32 -16 c-45 -24
-53 -21 -53 13 0 33 9 36 55 16z"/>
<path d="M598 2003 l-3 -48 -98 0 c-86 0 -97 -2 -97 -17 0 -16 12 -18 109 -18
123 0 121 -1 121 88 0 30 -4 42 -14 42 -11 0 -16 -14 -18 -47z"/>
<path d="M605 1860 c-4 -6 -4 -31 0 -56 l6 -44 -34 0 c-37 0 -47 12 -47 56 0
15 -6 24 -16 24 -12 0 -14 -8 -8 -45 5 -35 3 -45 -7 -45 -8 0 -24 -3 -36 -6
-20 -6 -23 -1 -29 45 -4 33 -11 51 -20 51 -11 0 -12 -13 -7 -62 3 -35 7 -65 9
-66 1 -2 52 2 113 9 l112 13 -7 61 c-7 62 -17 85 -29 65z"/>
<path d="M3520 1819 l0 -42 -47 7 c-133 18 -163 19 -163 4 0 -11 24 -18 100
-28 l100 -12 -2 -39 c-2 -21 1 -39 7 -41 11 -3 39 158 31 179 -11 28 -26 11
-26 -28z"/>
<path d="M1322 1805 c-41 -13 -134 -54 -208 -91 -121 -60 -141 -67 -193 -67
-43 0 -73 7 -110 25 -28 14 -51 24 -51 24 0 -14 49 -169 71 -228 35 -90 55
-105 118 -88 61 16 121 63 245 190 115 119 187 170 240 170 14 0 17 5 12 23
-3 12 -6 32 -6 45 0 28 -21 28 -118 -3z"/>
<path d="M1560 1811 c-16 -31 -12 -49 14 -67 19 -12 29 -13 43 -5 16 9 15 10
-8 11 -15 0 -32 7 -40 16 -18 22 1 49 35 49 14 -1 26 3 26 7 0 17 -59 8 -70
-11z"/>
<path d="M1662 1818 c-20 -20 -14 -56 13 -74 23 -15 27 -15 50 0 44 29 28 86
-25 86 -14 0 -31 -5 -38 -12z m69 -14 c17 -21 0 -49 -31 -49 -31 0 -48 28 -31
49 8 9 21 16 31 16 10 0 23 -7 31 -16z"/>
<path d="M1773 1785 c0 -27 2 -38 4 -22 2 15 2 37 0 50 -2 12 -4 0 -4 -28z"/>
<path d="M1807 1823 c-11 -10 -8 -83 3 -83 6 0 10 14 10 31 0 27 2 30 15 19
12 -10 18 -10 29 -1 12 10 15 7 19 -21 3 -25 4 -21 5 16 2 48 2 49 -18 31 -19
-17 -21 -17 -38 -2 -10 10 -22 14 -25 10z"/>
<path d="M1917 1824 c-4 -4 -7 -25 -7 -46 0 -35 2 -38 29 -38 33 0 46 13 34
32 -4 7 -7 22 -8 33 0 20 -34 33 -48 19z m35 -19 c0 -5 -5 -11 -11 -13 -6 -2
-11 4 -11 13 0 9 5 15 11 13 6 -2 11 -8 11 -13z m11 -40 c1 -5 -6 -11 -15 -13
-11 -2 -18 3 -18 13 0 17 30 18 33 0z"/>
<path d="M2010 1793 c-22 -56 -22 -59 -8 -43 16 18 50 20 56 2 2 -6 8 -12 13
-12 5 0 -1 20 -13 45 -12 25 -25 45 -28 45 -3 0 -12 -17 -20 -37z m30 -3 c0
-5 -4 -10 -10 -10 -5 0 -10 5 -10 10 0 6 5 10 10 10 6 0 10 -4 10 -10z"/>
<path d="M2083 1823 c12 -3 17 -15 17 -44 0 -21 5 -39 10 -39 6 0 10 18 10 39
0 29 5 41 18 44 9 3 -3 5 -28 5 -25 0 -37 -2 -27 -5z"/>
<path d="M2160 1816 c-32 -39 23 -100 65 -72 43 28 26 86 -25 86 -15 0 -33 -7
-40 -14z m71 -12 c17 -21 0 -49 -31 -49 -31 0 -48 28 -31 49 8 9 21 16 31 16
10 0 23 -7 31 -16z"/>
<path d="M2271 1783 c1 -26 4 -38 6 -25 5 27 19 28 33 2 6 -11 16 -20 22 -20
6 0 5 6 -3 17 -8 9 -14 28 -14 42 0 19 -6 27 -22 29 -21 3 -23 0 -22 -45z m39
22 c0 -8 -7 -15 -15 -15 -8 0 -15 7 -15 15 0 8 7 15 15 15 8 0 15 -7 15 -15z"/>
<path d="M2350 1786 c0 -39 3 -44 25 -48 14 -3 28 -1 31 3 3 5 -4 9 -15 9 -28
0 -27 28 2 33 l22 4 -22 2 c-13 0 -23 7 -23 15 0 8 10 17 23 19 16 3 13 5 -10
6 -32 1 -33 0 -33 -43z"/>
<path d="M2970 1824 c-14 -3 -79 -16 -146 -29 -139 -29 -210 -31 -261 -10 -19
8 -39 15 -43 15 -8 0 -30 -54 -30 -75 0 -26 184 -78 332 -95 43 -5 96 -15 118
-21 54 -16 121 -77 145 -129 l19 -42 19 49 c31 79 68 231 65 266 -2 25 -10 36
-39 49 -36 18 -134 30 -179 22z"/>
<path d="M627 1623 c27 -54 24 -84 -9 -120 -15 -16 -33 -23 -58 -23 -51 0 -81
34 -88 99 -3 37 -8 48 -18 44 -35 -13 -5 -129 41 -159 60 -39 155 -5 174 63
14 49 -14 137 -45 141 -22 3 -22 3 3 -45z"/>
<path d="M1410 1604 c-41 -29 -122 -103 -180 -163 -94 -97 -111 -110 -163
-127 -47 -15 -67 -16 -108 -8 -43 9 -49 9 -44 -5 11 -29 116 -168 159 -210 42
-41 45 -43 78 -32 37 12 103 76 136 132 12 19 44 86 71 149 60 134 89 179 141
215 l38 27 -20 34 c-11 19 -23 36 -27 38 -4 3 -40 -20 -81 -50z"/>
<path d="M2423 1599 c-16 -24 -23 -43 -17 -47 5 -4 36 -27 69 -51 32 -24 113
-71 179 -104 165 -81 206 -122 231 -231 l11 -50 50 62 c27 34 69 96 93 138 51
90 49 107 -25 154 -55 34 -139 55 -289 70 -131 13 -187 30 -237 70 l-37 30
-28 -41z"/>
<path d="M3286 1631 c-4 -5 -2 -12 3 -16 8 -4 138 -35 204 -48 7 -1 12 4 12
12 0 23 -207 72 -219 52z"/>
<path d="M1540 1447 c-28 -40 -78 -126 -110 -193 -32 -66 -70 -134 -84 -152
-31 -36 -97 -70 -157 -80 l-42 -7 74 -57 c41 -31 103 -73 139 -93 62 -35 66
-36 95 -22 63 30 102 147 125 372 11 112 33 181 71 221 19 20 19 21 -20 52
l-38 31 -53 -72z"/>
<path d="M3256 1492 c-61 -65 -51 -163 21 -197 84 -40 173 22 173 121 0 28 -8
44 -34 70 -29 29 -41 34 -83 34 -41 0 -54 -5 -77 -28z m141 -28 c22 -22 25
-32 20 -67 -6 -46 -43 -87 -78 -87 -34 0 -76 28 -88 58 -37 88 78 164 146 96z"/>
<path d="M2302 1474 c-17 -14 -32 -30 -32 -35 0 -23 72 -112 185 -229 137
-141 149 -164 143 -270 l-4 -69 39 22 c22 12 82 57 134 100 89 74 95 81 89
109 -15 74 -92 136 -269 215 -110 50 -206 107 -207 122 -1 3 -11 18 -23 33
l-22 27 -33 -25z"/>
<path d="M686 1385 c-14 -32 -26 -61 -26 -66 0 -13 -30 -11 -86 6 -27 8 -50
15 -51 15 -10 0 -1 -31 10 -34 6 -2 33 -9 59 -16 l47 -12 -24 -53 c-14 -32
-20 -58 -14 -66 10 -16 9 -17 39 49 13 29 28 56 32 58 4 3 35 -3 68 -12 33 -9
63 -14 66 -11 12 12 -8 25 -65 41 l-60 17 26 60 c18 41 23 63 16 70 -8 8 -19
-7 -37 -46z"/>
<path d="M1729 1383 c-23 -58 -57 -211 -64 -283 -12 -142 -58 -226 -148 -272
-30 -15 -37 -22 -26 -29 21 -13 156 -56 219 -69 83 -18 101 -12 128 40 30 60
29 142 -4 295 -35 162 -39 220 -21 273 l15 43 -35 14 c-48 20 -52 19 -64 -12z"/>
<path d="M2133 1388 c-18 -6 -33 -16 -33 -23 0 -31 55 -166 116 -283 61 -119
67 -136 67 -191 0 -43 -6 -73 -25 -110 -14 -28 -22 -51 -18 -51 21 0 183 55
241 81 75 35 85 51 68 114 -17 61 -56 114 -143 195 -151 141 -185 180 -203
231 -19 52 -20 53 -70 37z"/>
<path d="M1915 1333 c-8 -46 3 -170 27 -291 30 -154 17 -221 -57 -295 l-36
-36 27 -7 c29 -8 256 2 291 12 31 9 47 55 40 120 -6 56 -27 102 -145 327 -42
79 -52 107 -52 146 l0 49 -44 4 c-43 3 -45 2 -51 -29z"/>
<path d="M3136 1261 c-3 -5 26 -28 65 -51 38 -24 66 -46 62 -50 -4 -4 -53 -15
-107 -24 -89 -14 -128 -28 -115 -40 10 -9 172 -108 185 -113 8 -3 14 1 14 10
0 8 -32 34 -72 58 -40 23 -68 44 -63 46 6 1 59 11 119 21 61 10 111 23 113 29
4 10 -166 123 -185 123 -6 0 -13 -4 -16 -9z"/>
<path d="M825 1200 c-3 -5 6 -27 20 -47 l25 -38 -22 -17 c-32 -25 -40 -22 -66
18 -16 25 -27 33 -34 26 -7 -7 -2 -22 16 -48 l26 -38 -31 -20 c-27 -17 -32
-17 -40 -4 -18 33 -48 63 -55 55 -8 -8 7 -41 40 -82 l23 -29 69 47 c38 26 80
56 93 66 l23 18 -37 51 c-40 56 -41 57 -50 42z"/>
</g>
</svg>
